<svg width="361" height="68" viewBox="0 0 361 68" fill="none" xmlns="http://www.w3.org/2000/svg">
<path d="M34 0L41.6335 23.4934L66.3359 23.4934L46.3512 38.0132L53.9847 61.5066L34 46.9868L14.0153 61.5066L21.6488 38.0132L1.66408 23.4934L26.3665 23.4934L34 0Z" fill="#FDD26E"/>
<path d="M107.101 0L114.734 23.4934L139.437 23.4934L119.452 38.0132L127.085 61.5066L107.101 46.9868L87.1159 61.5066L94.7494 38.0132L74.7647 23.4934L99.4671 23.4934L107.101 0Z" fill="#FDD26E"/>
<path d="M180.199 0L187.833 23.4934L212.535 23.4934L192.55 38.0132L200.184 61.5066L180.199 46.9868L160.215 61.5066L167.848 38.0132L147.863 23.4934L172.566 23.4934L180.199 0Z" fill="#FDD26E"/>
<path d="M253.301 0L260.934 23.4934L285.637 23.4934L265.652 38.0132L273.285 61.5066L253.301 46.9868L233.316 61.5066L240.95 38.0132L220.965 23.4934L245.667 23.4934L253.301 0Z" fill="#FDD26E"/>
<path d="M326.399 0L334.033 23.4934L358.735 23.4934L338.751 38.0132L346.384 61.5066L326.399 46.9868L306.415 61.5066L314.048 38.0132L294.063 23.4934L318.766 23.4934L326.399 0Z" fill="#FDD26E"/>
</svg>
