<svg width="39" height="39" viewBox="0 0 39 39" fill="none" xmlns="http://www.w3.org/2000/svg">
<path d="M28.6222 25.1239C30.9824 21.914 32.0395 17.9344 31.582 13.9812C31.1245 10.0279 29.1863 6.39259 26.155 3.80248C23.1237 1.21237 19.223 -0.141503 15.2332 0.011719C11.2433 0.164941 7.45867 1.81396 4.63635 4.62886C1.81404 7.44377 0.162206 11.217 0.0113255 15.1936C-0.139555 19.1702 1.22165 23.0569 3.8226 26.0762C6.42356 29.0955 10.0725 31.0247 14.0393 31.4778C18.0061 31.9309 21.9983 30.8745 25.2172 28.52H25.2147C25.2879 28.6171 25.3659 28.7095 25.4536 28.7993L34.8376 38.152C35.2947 38.6078 35.9147 38.8641 36.5612 38.8643C37.2078 38.8645 37.828 38.6087 38.2853 38.1532C38.7427 37.6977 38.9998 37.0798 39 36.4354C39.0002 35.791 38.7436 35.1729 38.2866 34.717L28.9025 25.3644C28.8154 25.2764 28.7217 25.1952 28.6222 25.1214V25.1239ZM29.2511 15.7857C29.2511 17.5403 28.9043 19.2777 28.2306 20.8988C27.5569 22.5198 26.5695 23.9927 25.3246 25.2334C24.0798 26.4741 22.602 27.4582 20.9755 28.1297C19.349 28.8011 17.6058 29.1467 15.8453 29.1467C14.0849 29.1467 12.3416 28.8011 10.7152 28.1297C9.08873 27.4582 7.61089 26.4741 6.36605 25.2334C5.12121 23.9927 4.13375 22.5198 3.46005 20.8988C2.78635 19.2777 2.4396 17.5403 2.4396 15.7857C2.4396 12.2422 3.85198 8.84378 6.36605 6.33811C8.88011 3.83244 12.2899 2.42477 15.8453 2.42477C19.4008 2.42477 22.8106 3.83244 25.3246 6.33811C27.8387 8.84378 29.2511 12.2422 29.2511 15.7857Z" fill="#727272"/>
</svg>
